<svg xmlns="http://www.w3.org/2000/svg" xmlns:xlink="http://www.w3.org/1999/xlink" version="1.1" x="0px" y="0px" viewBox="0 0 82 102.5" enable-background="new 0 0 82 82" xml:space="preserve"><path d="M61.614,23.131l3.064-3.064c0.587-0.586,0.586-1.535,0-2.121c-0.585-0.586-1.536-0.586-2.121-0.002l-3.065,3.066  c-0.586,0.586-0.586,1.535,0.001,2.121C60.078,23.717,61.028,23.717,61.614,23.131z"/><path d="M63.837,28.791c0.414,0.717,1.33,0.963,2.049,0.549l3.752-2.168c0.719-0.414,0.964-1.33,0.55-2.049  c-0.414-0.717-1.332-0.963-2.049-0.549l-3.753,2.168C63.667,27.156,63.422,28.072,63.837,28.791z"/><path d="M66.568,35.383c0.215,0.801,1.037,1.275,1.838,1.061l4.186-1.123c0.801-0.213,1.275-1.035,1.061-1.836  c-0.214-0.801-1.037-1.275-1.836-1.061l-4.188,1.121C66.828,33.76,66.353,34.582,66.568,35.383z"/><path d="M73.334,40.957H69c-0.828,0-1.5,0.67-1.499,1.5c-0.001,0.828,0.671,1.5,1.5,1.5l4.333-0.002  c0.83,0.002,1.5-0.67,1.501-1.498C74.835,41.627,74.162,40.957,73.334,40.957z"/><path d="M70.23,50.31c-1.053-0.349-2.182,0.222-2.527,1.271c-3.937,11.891-15.002,19.881-27.537,19.881c-15.99,0-29-13.01-29-29  c0-15.991,13.01-29,29-29c1.704,0,3.395,0.164,5.059,0.457c-0.005,0.027-0.011,0.061-0.016,0.088l-0.432,2.461  c-0.191,1.084,0.498,1.661,1.531,1.285l2.349-0.856c1.033-0.376,2.724-0.993,3.758-1.37l2.349-0.855  c1.033-0.377,1.189-1.264,0.346-1.97l-1.916-1.605c-0.843-0.706-2.221-1.862-3.064-2.569L48.213,6.92  c-0.843-0.707-1.688-0.398-1.879,0.685L45.917,9.98c-1.892-0.333-3.813-0.52-5.751-0.52c-18.196,0-33,14.803-33,33  c0,18.195,14.804,33,33,33c14.263,0,26.855-9.092,31.334-22.624C71.847,51.788,71.278,50.656,70.23,50.31z"/><path d="M56.604,49.344l-0.855,0.398c-1.063-1.906-3.304-5.373-5.972-6.287c-2.239-0.769-4.679-1.698-5.292-3.013  c-0.614-1.316,0.242-3.782,1.093-5.991c1.016-2.631-0.2-6.575-0.978-8.616l0.855-0.398c0.715-0.334,1.025-1.185,0.691-1.9  c-0.334-0.715-1.185-1.024-1.9-0.691L22.369,33.047c-0.716,0.334-1.025,1.185-0.692,1.9c0.334,0.716,1.186,1.024,1.901,0.691  l0.854-0.399c1.063,1.907,3.304,5.374,5.972,6.288c2.239,0.769,4.679,1.696,5.292,3.013c0.613,1.315-0.243,3.781-1.094,5.991  c-1.015,2.631,0.201,6.576,0.979,8.616l-0.855,0.398c-0.715,0.333-1.025,1.184-0.691,1.899c0.333,0.716,1.185,1.025,1.9,0.691  l21.878-10.201c0.716-0.334,1.025-1.186,0.691-1.9C58.17,49.319,57.319,49.01,56.604,49.344z M36.88,58.541  c-0.787-2.103-1.718-5.484-0.942-7.496c1.042-2.705,1.907-5.283,1.056-7.109c-0.852-1.827-3.383-2.82-6.125-3.762  c-2.169-0.742-4.145-3.786-5.133-5.542l17.566-8.191c0.786,2.104,1.718,5.484,0.942,7.497c-1.042,2.705-1.908,5.282-1.056,7.109  c0.852,1.826,3.383,2.82,6.125,3.761c2.169,0.744,4.144,3.786,5.133,5.542L36.88,58.541z"/><text x="0" y="97" fill="#000000" font-size="5px" font-weight="bold" font-family="'Helvetica Neue', Helvetica, Arial-Unicode, Arial, Sans-serif">Created by Goh H Chin</text><text x="0" y="102" fill="#000000" font-size="5px" font-weight="bold" font-family="'Helvetica Neue', Helvetica, Arial-Unicode, Arial, Sans-serif">from the Noun Project</text></svg>