<svg xmlns="http://www.w3.org/2000/svg" xmlns:xlink="http://www.w3.org/1999/xlink" version="1.1" x="0px" y="0px" viewBox="0 0 200 250" style="enable-background:new 0 0 200 200;" xml:space="preserve"><path d="M56.47,66.25H31.28c-2.09,0-3.78-1.69-3.78-3.78s1.69-3.78,3.78-3.78h25.19c2.09,0,3.78,1.69,3.78,3.78  S58.55,66.25,56.47,66.25z"/><path d="M45.13,90.19H31.28c-2.09,0-3.78-1.69-3.78-3.78s1.69-3.78,3.78-3.78h13.85c2.09,0,3.78,1.69,3.78,3.78  S47.21,90.19,45.13,90.19z"/><path d="M48.91,115.97H31.28c-2.09,0-3.78-1.69-3.78-3.78c0-2.09,1.69-3.78,3.78-3.78h17.63c2.09,0,3.78,1.69,3.78,3.78  C52.68,114.28,50.99,115.97,48.91,115.97z"/><path d="M57.71,141.75H31.28c-2.09,0-3.78-1.69-3.78-3.78c0-2.09,1.69-3.78,3.78-3.78h26.43c2.09,0,3.78,1.69,3.78,3.78  C61.49,140.06,59.8,141.75,57.71,141.75z"/><path d="M116.11,167.53H31.28c-2.09,0-3.78-1.69-3.78-3.78s1.69-3.78,3.78-3.78h84.83c2.09,0,3.78,1.69,3.78,3.78  S118.2,167.53,116.11,167.53z"/><path d="M190.96,167.43l-41.53-33.07c10.02-10.72,15.48-25.58,13.7-41.27c-1.59-14-8.64-26.07-18.79-34.34V39.08  c0-9.83-8-17.83-17.83-17.83h-25.4v-4.98c0-5.77-4.69-10.46-10.46-10.46H61.37c-5.77,0-10.46,4.69-10.46,10.46v4.98h-25.4  c-9.83,0-17.83,8-17.83,17.83V176.4c0,9.83,8,17.83,17.83,17.83h100.99c9.83,0,17.83-8,17.83-17.83v-34.15l40.8,32.49  c0.86,0.69,1.89,1.02,2.91,1.02c1.37,0,2.74-0.6,3.66-1.76C193.31,171.98,192.97,169.04,190.96,167.43z M61.02,30.72v-9.47v-4.98  c0-0.2,0.16-0.36,0.36-0.36h29.27c0.2,0,0.36,0.16,0.36,0.36v4.98v9.47v0.9c0,0.2-0.16,0.36-0.36,0.36H61.37  c-0.2,0-0.36-0.16-0.36-0.36V30.72z M134.86,176.4c0,4.61-3.75,8.36-8.36,8.36H25.51c-4.61,0-8.36-3.75-8.36-8.36V39.08  c0-4.61,3.75-8.36,8.36-8.36h25.4v0.9c0,5.77,4.69,10.46,10.46,10.46h29.27c5.77,0,10.46-4.69,10.46-10.46v-0.9h25.4  c4.61,0,8.36,3.75,8.36,8.36v13.51c-8.71-4.4-18.75-6.41-29.16-5.23c-28.44,3.22-48.95,28.98-45.72,57.42  c3,26.46,25.51,46.06,51.53,46.06c1.94,0,3.91-0.11,5.88-0.33c6.26-0.71,12.14-2.52,17.47-5.2V176.4z M139.9,130.63  c-0.39,0.23-0.74,0.53-1.06,0.89c-1.27,1.06-2.58,2.08-3.97,3c-5.4,3.55-11.67,5.93-18.52,6.7c-23.31,2.65-44.44-14.18-47.08-37.49  c-2.64-23.32,14.17-44.43,37.49-47.08c10.26-1.16,20.09,1.44,28.11,6.71c3.56,2.33,6.75,5.2,9.47,8.48c5.1,6.15,8.53,13.79,9.5,22.3  c1.35,11.93-2.4,23.28-9.5,31.87C142.98,127.66,141.49,129.2,139.9,130.63z"/><g><path d="M129.44,87.18c-1.26-1.36-3.61-2.18-6.07-0.03c-0.65,0.57-1.22,1.16-1.78,1.74l-4.1,4.24c-1.82,1.88-1.82,1.88-3.85,3.97   l-4.41,4.55l-0.72-0.72c-0.74-0.74-1.44-1.47-2.15-2.21l-0.17-0.17c-0.63-0.66-1.27-1.31-1.91-1.96c-1.11-1.13-2.31-1.71-3.55-1.71   c-0.77,0-1.92,0.23-3,1.33c-0.69,0.7-2.71,3.25,0.43,6.53c1.87,1.96,3.76,3.9,5.64,5.84l1.71,1.77c0.76,0.78,1.84,1.7,3.49,1.83   l0.11,0.01l0.11,0c2.02-0.02,3.2-1.3,3.9-2.07c0.09-0.1,0.18-0.2,0.27-0.29l6.7-6.92c1.85-1.9,2.99-3.08,8.23-8.5   c0.3-0.31,0.6-0.63,0.9-0.95C131.06,91.48,131.14,89.02,129.44,87.18z"/></g><text x="0" y="215" fill="#000000" font-size="5px" font-weight="bold" font-family="'Helvetica Neue', Helvetica, Arial-Unicode, Arial, Sans-serif">Created by Forget Me Not</text><text x="0" y="220" fill="#000000" font-size="5px" font-weight="bold" font-family="'Helvetica Neue', Helvetica, Arial-Unicode, Arial, Sans-serif">from the Noun Project</text></svg>